<mxfile host="app.diagrams.net" modified="2023-11-08T07:59:55.713Z" agent="Mozilla/5.0 (X11; Ubuntu; Linux x86_64; rv:109.0) Gecko/20100101 Firefox/119.0" version="22.0.8" etag="j5FdJ4x7R26mrdGFCSJE" type="github">
  <diagram name="PÃ¡gina-1" id="_sqQ-8NXDetCe3kTZrSW">
    <mxGraphModel>
      <root>
        <mxCell id="0" />
        <mxCell id="1" parent="0" />
      </root>
    </mxGraphModel>
  </diagram>
</mxfile>
